<svg width="144" height="32" viewBox="0 0 144 32" fill="none" xmlns="http://www.w3.org/2000/svg">
<rect width="32" height="32" rx="16" fill="#173430"/>
<ellipse cx="15.2198" cy="17.2282" rx="9.74401" ry="8.7696" fill="#FFA48F"/>
<ellipse cx="15.2198" cy="17.2282" rx="9.74401" ry="8.7696" fill="url(#paint0_linear_7_2868)"/>
<g filter="url(#filter0_d_7_2868)">
<ellipse cx="17.7233" cy="17.2282" rx="8.02007" ry="8.02006" fill="#FFB9AA"/>
</g>
<ellipse cx="17.7233" cy="17.2282" rx="8.76961" ry="8.7696" fill="url(#paint1_radial_7_2868)"/>
<ellipse cx="17.7233" cy="17.2282" rx="8.76961" ry="8.7696" fill="url(#paint2_linear_7_2868)"/>
<path d="M16.3606 2.11429L17.9532 5.2763L14.4185 5.07453L16.3606 2.11429Z" fill="#19A279"/>
<path d="M16.0111 8.23654L14.4185 5.07453L17.9531 5.2763L16.0111 8.23654Z" fill="#19A279"/>
<path d="M21.7632 5.76803L19.8239 8.73006L18.2283 5.56952L21.7632 5.76803Z" fill="#19A279"/>
<path d="M16.289 8.53159L18.2283 5.56956L19.8238 8.7301L16.289 8.53159Z" fill="#19A279"/>
<path d="M101.517 20.9095C101.392 21.0258 101.265 21.1406 101.14 21.2582C100.093 22.2488 99.1367 23.3389 97.9069 24.128C97.3274 24.4998 96.7516 24.8575 96.0459 24.9739C94.9797 25.1496 94.1153 24.4821 93.8245 23.6136C93.6941 23.2242 93.8024 22.7564 93.8024 22.3079C93.2742 22.5697 92.7154 22.8301 92.1722 23.1193C90.9208 23.7855 89.6042 24.2937 88.2283 24.6201C87.1853 24.8674 86.0964 25.0004 85.075 24.5649C83.9601 24.0896 83.2217 23.2619 83.1369 21.9982C83.1192 21.7354 83.1777 21.4622 83.2347 21.201C83.3817 20.5257 83.5426 19.8664 83.9214 19.2554C84.8866 17.6992 86.1282 16.4335 87.7166 15.511C88.0304 15.3287 88.3833 15.2031 88.731 15.0897C89.6951 14.7754 90.5089 15.11 91.0067 15.9866C91.4135 16.7027 91.2576 17.4064 90.8603 18.027C90.0452 19.2999 88.98 20.3207 87.4557 20.7053C86.9505 20.8327 86.4006 20.8046 85.871 20.8087C85.7325 20.8097 85.5928 20.6646 85.4482 20.5833C85.1511 20.9373 85.0556 21.969 85.3117 22.3662C85.5336 22.7102 85.9021 22.8289 86.2714 22.7994C86.918 22.7476 87.5785 22.6935 88.198 22.5183C89.2568 22.2188 90.3353 21.9208 91.3196 21.4468C92.5638 20.8476 93.7433 20.1055 94.9087 19.3606C95.5316 18.9624 96.0466 18.4025 96.6447 17.9615C98.2733 16.7604 99.7387 15.3093 101.722 14.6409C102.66 14.3245 103.615 14.1938 104.518 14.7056C105.286 15.1412 105.736 15.8238 105.716 16.7287C105.711 16.9394 105.595 17.2159 105.435 17.3419C104.994 17.6876 104.729 18.146 104.545 18.6348C104.175 19.6218 103.847 20.626 103.547 21.6363C103.471 21.8909 103.481 22.2478 103.615 22.4552C103.686 22.5655 104.131 22.5227 104.361 22.4329C104.941 22.207 105.474 21.8539 106.064 21.6661C106.751 21.4469 107.322 21.0483 107.873 20.6381C109.096 19.727 110.307 18.7929 111.454 17.7895C112.403 16.9591 113.211 15.9714 114.156 15.1356C115.121 14.2817 116.179 13.5236 117.423 13.1012C118.082 12.8775 118.767 12.8837 119.381 13.2734C120.3 13.856 120.635 14.6864 120.187 15.9687C119.74 17.2482 118.949 18.3561 118.05 19.3663C117.795 19.6533 117.371 19.8322 116.99 19.9606C116.538 20.1132 115.742 19.435 115.672 18.9047C115.596 18.3289 116.004 17.9035 116.649 17.862C116.761 17.8547 116.918 17.8037 116.97 17.7211C117.43 16.9961 117.871 16.2596 118.317 15.5262C118.342 15.4859 118.374 15.4447 118.381 15.4004C118.403 15.2578 118.415 15.1138 118.431 14.9702C118.284 14.9769 118.118 14.9411 117.993 14.9966C116.829 15.5141 115.845 16.2855 114.941 17.1667C113.803 18.2772 112.758 19.4676 111.951 20.8375C111.608 21.4194 111.3 22.0461 111.48 22.7714C111.62 23.3361 111.953 23.6084 112.543 23.6031C113.817 23.5916 115.021 23.2596 116.188 22.7845C116.989 22.4585 117.772 22.0903 118.575 21.7691C120.831 20.8663 122.861 19.5712 124.878 18.2504C125.272 17.9927 125.376 17.5758 125.551 17.1986C126.713 14.6934 128.024 12.2718 129.552 9.96335C130.187 9.00325 130.828 8.05932 131.714 7.30817C132.232 6.86888 132.799 6.60153 133.505 6.88957C133.903 7.05188 134.34 7.6291 134.308 8.01155C134.27 8.44617 133.794 8.9294 133.306 8.97519C132.958 9.00779 132.715 9.15337 132.498 9.41902C131.442 10.7162 130.549 12.1194 129.757 13.5841C128.962 15.056 128.187 16.5398 127.446 18.0392C127.03 18.8802 126.7 19.7629 126.334 20.628C126.294 20.7221 126.275 20.8248 126.301 20.9591C126.391 20.8616 126.479 20.7622 126.572 20.667C127.939 19.2597 129.244 17.7864 130.85 16.6308C131.262 16.3347 131.689 16.0403 132.15 15.836C132.553 15.6576 132.98 15.4665 133.471 15.6566C134.399 16.0159 134.669 16.885 134.401 17.6438C134.015 18.7394 133.518 19.7969 133.064 20.8687C132.78 21.5386 132.455 22.1921 132.364 22.9285C132.314 23.3334 132.469 23.5524 132.876 23.5281C133.767 23.4751 134.542 23.0894 135.292 22.6502C137.453 21.3858 139.378 19.8251 141.151 18.0723C141.293 17.9319 141.446 17.7956 141.614 17.6883C142.048 17.4105 142.611 17.5065 142.932 17.8954C143.2 18.2198 143.174 18.7328 142.82 19.0853C142.125 19.7778 141.458 20.5128 140.686 21.1119C138.998 22.4215 137.377 23.8342 135.444 24.8015C134.661 25.1933 133.879 25.5423 132.958 25.5772C131.404 25.636 130.034 24.4372 130.352 22.5743C130.455 21.9759 130.628 21.3793 130.853 20.8143C131.165 20.028 131.557 19.273 131.91 18.5024C131.965 18.384 131.993 18.2538 132.033 18.1292C132.007 18.1116 131.982 18.094 131.956 18.0766C131.743 18.238 131.509 18.3792 131.319 18.5642C130.454 19.4055 129.602 20.2594 128.745 21.1083C127.687 22.155 126.621 23.1926 125.577 24.2521C125.198 24.6366 124.784 24.7726 124.293 24.5585C123.816 24.3507 123.529 23.9394 123.552 23.4435C123.581 22.8052 123.729 22.1718 123.83 21.5372C123.849 21.4167 123.891 21.2996 123.938 21.1212C122.938 21.6621 121.997 22.1551 121.072 22.6752C119.363 23.6353 117.581 24.4315 115.719 25.048C114.659 25.3987 113.577 25.6536 112.449 25.6461C110.923 25.6359 109.715 24.6046 109.494 23.1073C109.432 22.6895 109.414 22.2657 109.371 21.7907C109.237 21.8892 109.111 21.9839 108.983 22.0761C107.639 23.0466 106.199 23.8302 104.589 24.2771C104.214 24.3813 103.824 24.5132 103.444 24.5037C102.903 24.4901 102.415 24.2529 102.03 23.852C101.46 23.2594 101.282 22.5618 101.455 21.766C101.513 21.4965 101.55 21.2224 101.597 20.9505C101.57 20.9369 101.544 20.9234 101.517 20.9098L101.517 20.9095ZM102.524 16.6212C102.5 16.5921 102.475 16.5631 102.451 16.534C102.218 16.63 101.973 16.7063 101.752 16.825C99.7654 17.8934 98.1512 19.3837 96.8194 21.1781C96.4716 21.6466 96.1974 22.1696 95.9032 22.6755C95.8584 22.7526 95.8503 22.9308 95.8951 22.9613C95.9773 23.0172 96.1137 23.016 96.2238 23.0043C96.2996 22.9963 96.3751 22.9383 96.4408 22.8894C96.9038 22.5441 97.3492 22.1737 97.8282 21.8522C98.9797 21.0795 99.7178 19.9116 100.678 18.9563C101.153 18.4841 101.536 17.9218 101.954 17.3945C102.153 17.1436 102.335 16.8793 102.524 16.6212H102.524ZM86.6696 18.9321C87.5488 18.9336 89.0603 17.7266 89.2305 16.9311C88.191 17.361 87.4791 18.1392 86.6696 18.9321Z" fill="#173430"/>
<path d="M71.223 7.72521C70.2456 7.54547 69.3139 7.5096 68.517 8.24048C68.2648 8.47182 67.8413 8.51151 67.5158 8.34793C67.073 8.12552 66.8192 7.75243 66.8089 7.27911C66.7979 6.77816 67.1146 6.40237 67.5345 6.17882C68.6911 5.56347 69.9092 5.33383 71.241 5.49898C73.4073 5.7676 75.3314 6.61429 77.1265 7.77C79.0556 9.01204 80.7577 10.5013 81.9436 12.503C82.4166 13.3014 82.6826 14.1571 82.5799 15.0629C82.5255 15.5422 82.3098 16.0556 82.0194 16.4459C81.3297 17.3731 80.4024 18.0505 79.3828 18.6072C78.1915 19.2577 76.9192 19.715 75.6321 20.1174C74.6585 20.4219 73.6533 20.6416 72.6487 20.8291C71.6499 21.0157 70.6379 21.1664 69.6251 21.2346C68.9598 21.2794 68.2805 21.1678 67.612 21.0877C67.4068 21.0632 67.2968 21.0825 67.224 21.2696C66.515 23.0901 65.763 24.8969 65.3452 26.813C65.2974 27.0324 65.3319 27.2822 65.3803 27.507C65.4657 27.9038 65.303 28.3212 64.9266 28.5655C64.4044 28.9045 64.0807 28.8882 63.6835 28.6044C63.0359 28.1415 62.9958 27.4509 63.1611 26.7852C63.4631 25.5694 63.8241 24.366 64.2096 23.173C64.4767 22.3468 64.7948 21.533 65.1445 20.7372C66.3857 17.9124 67.6243 15.086 68.9168 12.2843C69.6212 10.7572 70.4326 9.27854 71.2227 7.72535L71.223 7.72521ZM69.3812 19.0703C69.9509 19.0008 70.8969 18.9207 71.8298 18.7645C73.6581 18.4582 75.4536 18.0182 77.1559 17.2659C77.6736 17.0371 78.16 16.7185 78.6961 16.5543C80.1471 16.1102 80.8028 14.5953 79.9405 13.3744C79.4015 12.6114 78.7234 11.9336 78.0455 11.2812C76.7987 10.0813 75.3342 9.18824 73.7569 8.47168C73.5259 8.36664 73.3887 8.39797 73.2662 8.61726C73.0132 9.06974 72.7164 9.50038 72.4909 9.96547C71.1497 12.7315 69.8217 15.5038 68.4938 18.2762C68.1149 19.0672 68.1218 19.0704 69.3814 19.0704L69.3812 19.0703Z" fill="#173430"/>
<path d="M56.1507 10.8351C56.0926 12.692 55.8111 14.2566 55.3303 15.791C54.3819 18.8181 52.8079 21.4931 50.6824 23.8469C49.4741 25.1851 48.0447 26.2346 46.3439 26.9074C45.4845 27.2473 44.6122 27.4964 43.6849 27.4371C42.6041 27.3681 41.5978 27.0386 40.7983 26.2939C39.8746 25.4333 39.5932 24.3565 39.8984 23.1324C40.2261 21.8182 40.8527 20.6286 41.4646 19.4332C42.808 16.809 44.6159 14.5153 46.5682 12.3167C47.4356 11.3398 48.4345 10.5409 49.5549 9.89176C50.1387 9.55368 50.7855 9.36912 51.4936 9.50719C52.2031 9.6454 52.8493 10.2432 52.9098 10.9528C52.9458 11.3748 52.6158 11.6621 52.3243 11.9082C52.0333 12.154 51.6254 12.224 51.3302 11.9789C50.8652 11.5929 50.4844 11.7365 50.1009 12.0422C49.6584 12.3947 49.2023 12.7401 48.811 13.1446C46.7569 15.2677 44.9421 17.5766 43.526 20.1673C42.9804 21.1652 42.4865 22.2064 42.1124 23.2772C41.6332 24.649 42.3828 25.2218 43.5909 25.3584C44.7103 25.485 45.7341 25.0806 46.6415 24.4709C47.325 24.0118 47.961 23.4696 48.5615 22.9051C50.2444 21.3232 51.4594 19.4142 52.4633 17.3532C53.1868 15.8681 53.6628 14.3187 53.9306 12.6975C54.1302 11.4885 54.1062 10.2994 53.6863 9.13211C53.5534 8.76256 53.4767 8.72428 53.1251 8.92926C52.7255 9.16216 52.0446 8.99588 51.7146 8.5848C51.3758 8.16266 51.426 7.55142 51.8329 7.14147C52.6775 6.29067 54.1588 6.40974 54.9484 7.38557C55.4421 7.99567 55.7498 8.69083 55.9096 9.44864C56.0228 9.98589 56.0986 10.5309 56.1504 10.8353L56.1507 10.8351Z" fill="#173430"/>
<path d="M62.769 9.07243C62.7879 10.1071 61.5988 11.1181 60.9694 11.3334C60.6611 11.4389 60.2759 11.276 60.0966 11.0052C59.9177 10.7352 59.934 10.3929 60.2214 10.1035C60.6099 9.71244 60.81 9.30958 60.6314 8.74682C60.547 8.48075 60.8868 8.11375 61.2569 7.97923C61.9395 7.73088 62.7911 8.34665 62.769 9.07243Z" fill="#173430"/>
<defs>
<filter id="filter0_d_7_2868" x="4.22292" y="6.46799" width="21.5205" height="21.5205" filterUnits="userSpaceOnUse" color-interpolation-filters="sRGB">
<feFlood flood-opacity="0" result="BackgroundImageFix"/>
<feColorMatrix in="SourceAlpha" type="matrix" values="0 0 0 0 0 0 0 0 0 0 0 0 0 0 0 0 0 0 127 0" result="hardAlpha"/>
<feOffset dx="-2.74017"/>
<feGaussianBlur stdDeviation="1.37008"/>
<feComposite in2="hardAlpha" operator="out"/>
<feColorMatrix type="matrix" values="0 0 0 0 0.991667 0 0 0 0 0.0950348 0 0 0 0 0.0950348 0 0 0 0.25 0"/>
<feBlend mode="normal" in2="BackgroundImageFix" result="effect1_dropShadow_7_2868"/>
<feBlend mode="normal" in="SourceGraphic" in2="effect1_dropShadow_7_2868" result="shape"/>
</filter>
<linearGradient id="paint0_linear_7_2868" x1="15.2198" y1="8.45862" x2="15.2198" y2="25.9978" gradientUnits="userSpaceOnUse">
<stop stop-color="#DEF0C8" stop-opacity="0"/>
<stop offset="1" stop-color="#DEF0C8" stop-opacity="0.97"/>
</linearGradient>
<radialGradient id="paint1_radial_7_2868" cx="0" cy="0" r="1" gradientUnits="userSpaceOnUse" gradientTransform="translate(17.7233 17.2282) rotate(90) scale(8.7696 8.76961)">
<stop stop-color="#FFB9AA"/>
<stop offset="1" stop-color="#FF9C86"/>
</radialGradient>
<linearGradient id="paint2_linear_7_2868" x1="17.7233" y1="15.6242" x2="17.7233" y2="25.9978" gradientUnits="userSpaceOnUse">
<stop stop-color="#DEF0C8" stop-opacity="0"/>
<stop offset="1" stop-color="#DEF0C8"/>
</linearGradient>
</defs>
</svg>
