<svg width="32" height="32" viewBox="0 0 32 32" fill="none" xmlns="http://www.w3.org/2000/svg">
<path d="M3.99994 9.33332C3.99994 8.62608 4.28089 7.9478 4.78099 7.4477C5.28108 6.94761 5.95936 6.66666 6.66661 6.66666H25.3333C26.0405 6.66666 26.7188 6.94761 27.2189 7.4477C27.719 7.9478 27.9999 8.62608 27.9999 9.33332M3.99994 9.33332V22.6667C3.99994 23.3739 4.28089 24.0522 4.78099 24.5523C5.28108 25.0524 5.95936 25.3333 6.66661 25.3333H25.3333C26.0405 25.3333 26.7188 25.0524 27.2189 24.5523C27.719 24.0522 27.9999 23.3739 27.9999 22.6667V9.33332M3.99994 9.33332L15.9999 17.3333L27.9999 9.33332" stroke="#173430" stroke-width="2.66667" stroke-linecap="round" stroke-linejoin="round"/>
</svg>
