<svg width="32" height="32" viewBox="0 0 32 32" fill="none" xmlns="http://www.w3.org/2000/svg">
<path d="M10.6666 14.6667V21.3333M10.6666 10.6667V10.68M16 21.3333V14.6667M21.3333 21.3333V17.3333C21.3333 16.6261 21.0524 15.9478 20.5523 15.4477C20.0522 14.9476 19.3739 14.6667 18.6666 14.6667C17.9594 14.6667 17.2811 14.9476 16.781 15.4477C16.2809 15.9478 16 16.6261 16 17.3333M5.33331 8.00001C5.33331 7.29277 5.61426 6.61449 6.11436 6.11439C6.61446 5.61429 7.29274 5.33334 7.99998 5.33334H24C24.7072 5.33334 25.3855 5.61429 25.8856 6.11439C26.3857 6.61449 26.6666 7.29277 26.6666 8.00001V24C26.6666 24.7073 26.3857 25.3855 25.8856 25.8856C25.3855 26.3857 24.7072 26.6667 24 26.6667H7.99998C7.29274 26.6667 6.61446 26.3857 6.11436 25.8856C5.61426 25.3855 5.33331 24.7073 5.33331 24V8.00001Z" stroke="#173430" stroke-width="2.67" stroke-linecap="round" stroke-linejoin="round"/>
</svg>
